<svg xmlns="http://www.w3.org/2000/svg" viewBox="0 0 200 200" width="200" height="200">
  <defs><linearGradient id="g" x1="0" y1="0" x2="1" y2="1"><stop offset="0" stop-color="#F2D27C"/><stop offset="1" stop-color="#9A7420"/></linearGradient></defs>
  <circle cx="100" cy="100" r="92" fill="none" stroke="url(#g)" stroke-width="2" stroke-dasharray="6 6" opacity="0.7"/>
  <circle cx="184" cy="100" r="3.2" fill="#D6A84B" opacity="0.95"/><circle cx="181.1" cy="121.7" r="1.8" fill="#D6A84B" opacity="0.55"/><circle cx="172.7" cy="142" r="1.8" fill="#D6A84B" opacity="0.55"/><circle cx="159.4" cy="159.4" r="3.2" fill="#D6A84B" opacity="0.95"/><circle cx="142" cy="172.7" r="1.8" fill="#D6A84B" opacity="0.55"/><circle cx="121.7" cy="181.1" r="1.8" fill="#D6A84B" opacity="0.55"/><circle cx="100" cy="184" r="3.2" fill="#D6A84B" opacity="0.95"/><circle cx="78.3" cy="181.1" r="1.8" fill="#D6A84B" opacity="0.55"/><circle cx="58" cy="172.7" r="1.8" fill="#D6A84B" opacity="0.55"/><circle cx="40.6" cy="159.4" r="3.2" fill="#D6A84B" opacity="0.95"/><circle cx="27.3" cy="142" r="1.8" fill="#D6A84B" opacity="0.55"/><circle cx="18.9" cy="121.7" r="1.8" fill="#D6A84B" opacity="0.55"/><circle cx="16" cy="100" r="3.2" fill="#D6A84B" opacity="0.95"/><circle cx="18.9" cy="78.3" r="1.8" fill="#D6A84B" opacity="0.55"/><circle cx="27.3" cy="58" r="1.8" fill="#D6A84B" opacity="0.55"/><circle cx="40.6" cy="40.6" r="3.2" fill="#D6A84B" opacity="0.95"/><circle cx="58" cy="27.3" r="1.8" fill="#D6A84B" opacity="0.55"/><circle cx="78.3" cy="18.9" r="1.8" fill="#D6A84B" opacity="0.55"/><circle cx="100" cy="16" r="3.2" fill="#D6A84B" opacity="0.95"/><circle cx="121.7" cy="18.9" r="1.8" fill="#D6A84B" opacity="0.55"/><circle cx="142" cy="27.3" r="1.8" fill="#D6A84B" opacity="0.55"/><circle cx="159.4" cy="40.6" r="3.2" fill="#D6A84B" opacity="0.95"/><circle cx="172.7" cy="58" r="1.8" fill="#D6A84B" opacity="0.55"/><circle cx="181.1" cy="78.3" r="1.8" fill="#D6A84B" opacity="0.55"/>
  <path d="M100 8 C 150 8, 192 50, 192 100 C 192 150, 150 192, 100 192" fill="none" stroke="url(#g)" stroke-width="5" stroke-linecap="round"/>
  <path d="M100 8 l16 -6 -6 16z" fill="url(#g)"/>
</svg>
